<?xml version="1.0" encoding="UTF-8"?>
<svg xmlns="http://www.w3.org/2000/svg" version="1.1" viewBox="0 0 512 512">
  <defs>
    <style>
      .cls-1 {
        fill: #fff;
      }
    </style>
  </defs>
  <!-- Generator: Adobe Illustrator 28.6.0, SVG Export Plug-In . SVG Version: 1.2.0 Build 709)  -->
  <g>
    <g id="Layer_2">
      <path class="cls-1" d="M464,121.3c0-41.7-33.8-75.5-75.5-75.5h-13.6v-13.8c0-8.8-7.2-16-16-16s-16,7.2-16,16v13.8h-205.7v-13.8c0-8.8-7.2-16-16-16s-16,7.2-16,16v13.8h-13.6c-41.7,0-75.5,33.8-75.5,75.5v267.2c0,41.7,33.8,75.5,75.5,75.5h171.1c25.3,20.6,56.8,31.9,89.4,32,79.5,0,143.9-64.5,144-144-.1-32.6-11.4-64.1-32-89.4V121.3ZM91.5,77.8h13.6v13.7c0,8.8,7.2,16,16,16s16-7.2,16-16v-13.7h205.7v13.7c0,8.8,7.2,16,16,16s16-7.2,16-16v-13.7h13.6c24,0,43.5,19.5,43.5,43.5v13.6H48v-13.6c0-24,19.5-43.5,43.5-43.5ZM48,388.5v-221.6h384v65.5c-66-44.3-155.4-26.6-199.6,39.4-32.5,48.5-32.5,111.8,0,160.3H91.5c-24,0-43.5-19.5-43.5-43.5ZM352,464c-61.9,0-112-50.1-112-112s50.1-112,112-112,112,50.1,112,112c0,61.8-50.2,111.9-112,112Z"/>
      <path class="cls-1" d="M368,345.4v-57.4c0-8.8-7.2-16-16-16s-16,7.2-16,16v64c0,4.2,1.7,8.3,4.7,11.3l32,32c6.4,6.1,16.5,6,22.6-.4,6-6.2,6-16,0-22.2l-27.3-27.3Z"/>
    </g>
  </g>
</svg>