<?xml version="1.0" encoding="UTF-8"?>
<svg xmlns="http://www.w3.org/2000/svg" version="1.1" viewBox="0 0 512 512">
  <defs>
    <style>
      .cls-1 {
        fill: #fff;
      }
    </style>
  </defs>
  <!-- Generator: Adobe Illustrator 28.6.0, SVG Export Plug-In . SVG Version: 1.2.0 Build 709)  -->
  <g>
    <g id="Layer_1">
      <g id="Layer_2">
        <path class="cls-1" d="M256,21.3C126.4,21.3,21.3,126.4,21.3,256s105.1,234.7,234.7,234.7,234.7-105.1,234.7-234.7c-.2-129.5-105.1-234.5-234.7-234.7ZM377.7,228.4l-106.7,106.7c-8.3,8.3-21.8,8.3-30.2,0l-106.7-106.7c-8.2-8.5-8-22,.5-30.2,8.3-8,21.4-8,29.6,0l91.6,91.6,91.6-91.6c8.5-8.2,22-8,30.2.5,8,8.3,8,21.4,0,29.6h0Z"/>
      </g>
    </g>
  </g>
</svg>