<svg id="Слой_1" enable-background="new 0 0 512 512" height="512" viewBox="0 0 512 512" width="512" xmlns="http://www.w3.org/2000/svg"><g><path d="m448.201 300.945 34.922-36.148c4.766-4.933 4.766-12.661 0-17.594l-34.92-36.147c-3.989-4.128-7.034-9.196-8.807-14.656-1.774-5.46-2.288-11.35-1.487-17.034l7.008-49.754c.957-6.797-3.589-13.051-10.35-14.237l-49.487-8.681c-5.665-.994-11.118-3.307-15.77-6.688-4.652-3.382-8.535-7.855-11.228-12.937l-23.513-44.365c-3.219-6.074-10.578-8.465-16.753-5.443l-45.116 22.081c-5.169 2.53-10.943 3.867-16.698 3.867s-11.529-1.337-16.698-3.867l-45.114-22.082c-6.175-3.023-13.534-.631-16.753 5.443l-23.51 44.361c-2.693 5.082-6.576 9.556-11.228 12.938-4.653 3.382-10.106 5.695-15.771 6.688l-49.487 8.68c-6.761 1.186-11.307 7.439-10.35 14.236l7.007 49.759c.8 5.684.286 11.574-1.488 17.033s-4.819 10.526-8.807 14.655l-34.922 36.148c-4.766 4.933-4.766 12.661 0 17.594l34.921 36.147c3.988 4.128 7.034 9.196 8.807 14.656 1.773 5.459 2.288 11.35 1.487 17.034l-7.008 49.754c-.957 6.797 3.589 13.051 10.35 14.237l49.487 8.681c5.665.994 11.118 3.307 15.77 6.688 4.652 3.382 8.535 7.855 11.228 12.937l23.513 44.365c3.219 6.075 10.578 8.465 16.753 5.443l45.116-22.081c5.169-2.53 10.943-3.867 16.698-3.867s11.529 1.337 16.698 3.867l45.114 22.081c6.174 3.022 13.534.631 16.754-5.443l23.51-44.361c2.693-5.082 6.576-9.556 11.229-12.938 4.652-3.382 10.106-5.694 15.771-6.688l49.487-8.68c6.761-1.186 11.307-7.439 10.35-14.236l-7.007-49.759c-.8-5.684-.286-11.574 1.488-17.033 1.77-5.458 4.815-10.526 8.804-14.654zm-306.153-108.226c0-13.535 5.271-26.259 14.841-35.829s22.295-14.841 35.829-14.841c13.535 0 26.259 5.271 35.829 14.841s14.841 22.295 14.841 35.829c0 13.535-5.271 26.259-14.841 35.829s-22.295 14.841-35.829 14.841-26.259-5.271-35.829-14.841-14.841-22.294-14.841-35.829zm46.939 148.204c-2.472 2.472-5.713 3.708-8.953 3.708s-6.481-1.236-8.953-3.708c-4.945-4.945-4.945-12.961 0-17.906l151.935-151.935c4.945-4.945 12.961-4.945 17.906 0s4.945 12.961 0 17.906zm166.122 14.186c-9.571 9.57-22.295 14.841-35.829 14.841s-26.259-5.271-35.829-14.841-14.841-22.295-14.841-35.829 5.271-26.259 14.841-35.829c9.571-9.57 22.295-14.841 35.829-14.841s26.259 5.271 35.829 14.841 14.841 22.295 14.841 35.829-5.271 26.258-14.841 35.829z" fill="#ffe736"/><path d="m501.334 282.391c6.877-7.119 10.666-16.493 10.666-26.391 0-9.899-3.788-19.272-10.666-26.391l-34.92-36.147c-2.729-2.824-3.979-6.674-3.432-10.563l7.008-49.754c1.382-9.808-1.065-19.621-6.889-27.633s-14.404-13.366-24.16-15.078l-49.487-8.681c-3.876-.68-7.156-3.064-8.999-6.542l-23.513-44.365c-4.644-8.761-12.394-15.274-21.825-18.338s-19.529-2.351-28.435 2.008l-45.116 22.081c-3.537 1.731-7.595 1.731-11.132 0l-45.114-22.079c-8.906-4.359-19.005-5.073-28.435-2.008-9.431 3.064-17.182 9.577-21.825 18.338l-23.51 44.361c-1.843 3.478-5.123 5.862-9 6.542l-49.487 8.68c-9.756 1.711-18.336 7.065-24.16 15.076s-8.272 17.825-6.89 27.632l7.007 49.759c.548 3.888-.703 7.738-3.432 10.562l-34.922 36.148c-6.878 7.12-10.666 16.493-10.666 26.392s3.788 19.272 10.666 26.391l34.921 36.147c2.728 2.824 3.979 6.674 3.431 10.563l-7.008 49.754c-1.381 9.808 1.065 19.622 6.889 27.633s14.404 13.366 24.16 15.077l49.487 8.681c3.876.68 7.157 3.064 8.999 6.542l23.513 44.365c4.643 8.761 12.394 15.274 21.825 18.338s19.529 2.35 28.435-2.008l45.116-22.081c3.538-1.731 7.595-1.731 11.132 0l45.114 22.081c5.269 2.579 10.953 3.882 16.671 3.882 3.948 0 7.912-.621 11.764-1.873 9.431-3.064 17.182-9.577 21.825-18.338l23.51-44.361c1.843-3.478 5.123-5.862 9-6.542l49.487-8.68c9.756-1.711 18.336-7.065 24.16-15.076s8.271-17.825 6.89-27.632l-7.007-49.759c-.548-3.889.703-7.739 3.431-10.563zm-63.428 50.242 7.007 49.759c.957 6.797-3.589 13.05-10.35 14.236l-49.487 8.68c-5.665.994-11.119 3.307-15.771 6.688-4.653 3.382-8.535 7.856-11.229 12.938l-23.51 44.361c-3.22 6.075-10.579 8.465-16.754 5.443l-45.114-22.081c-5.169-2.53-10.943-3.867-16.698-3.867s-11.529 1.337-16.698 3.867l-45.116 22.081c-6.175 3.022-13.534.631-16.753-5.443l-23.513-44.365c-2.693-5.082-6.576-9.555-11.228-12.937s-10.105-5.694-15.77-6.688l-49.487-8.681c-6.761-1.186-11.308-7.44-10.35-14.237l7.008-49.754c.801-5.684.287-11.574-1.487-17.034-1.774-5.459-4.819-10.527-8.807-14.656l-34.921-36.147c-4.766-4.933-4.766-12.661 0-17.594l34.922-36.148c3.988-4.128 7.033-9.196 8.807-14.655s2.288-11.349 1.488-17.033l-7.007-49.759c-.957-6.797 3.589-13.05 10.35-14.236l49.487-8.68c5.665-.994 11.119-3.306 15.771-6.688s8.535-7.856 11.228-12.938l23.51-44.361c3.219-6.074 10.578-8.466 16.753-5.443l45.114 22.081c5.169 2.53 10.943 3.867 16.698 3.867s11.529-1.337 16.698-3.867l45.116-22.082c6.175-3.022 13.534-.631 16.753 5.443l23.514 44.367c2.693 5.082 6.576 9.556 11.228 12.937 4.652 3.382 10.105 5.694 15.77 6.688l49.487 8.681c6.761 1.186 11.307 7.44 10.35 14.237l-7.008 49.754c-.801 5.684-.287 11.574 1.487 17.034 1.773 5.459 4.819 10.527 8.807 14.656l34.92 36.147c4.766 4.933 4.766 12.661 0 17.594l-34.922 36.148c-3.988 4.128-7.033 9.196-8.807 14.655-1.772 5.458-2.286 11.348-1.486 17.032z" fill="#3a236b"/><path d="m340.922 171.082c-4.945-4.945-12.961-4.945-17.906 0l-151.935 151.935c-4.945 4.945-4.945 12.961 0 17.906 2.472 2.472 5.713 3.708 8.953 3.708s6.481-1.236 8.953-3.708l151.935-151.935c4.945-4.945 4.945-12.962 0-17.906z" fill="#3a236b"/><circle cx="192.719" cy="192.719" fill="#fff" r="25.348"/><path d="m228.548 228.549c9.57-9.57 14.841-22.295 14.841-35.829 0-13.535-5.271-26.259-14.841-35.829s-22.295-14.841-35.829-14.841c-13.535 0-26.259 5.271-35.829 14.841s-14.841 22.295-14.841 35.829 5.271 26.259 14.841 35.829 22.295 14.841 35.829 14.841c13.534-.001 26.259-5.271 35.829-14.841zm-35.829-61.178c13.977 0 25.348 11.371 25.348 25.348s-11.371 25.348-25.348 25.348-25.348-11.371-25.348-25.348 11.371-25.348 25.348-25.348z" fill="#3a236b"/><circle cx="319.279" cy="319.279" fill="#fff" r="25.348"/><path d="m319.279 268.609c-13.534 0-26.259 5.271-35.829 14.841s-14.841 22.295-14.841 35.829c0 13.535 5.271 26.259 14.841 35.829 9.571 9.57 22.295 14.841 35.829 14.841s26.259-5.271 35.829-14.841 14.841-22.295 14.841-35.829-5.271-26.259-14.841-35.829c-9.57-9.571-22.294-14.841-35.829-14.841zm0 76.018c-13.977 0-25.348-11.371-25.348-25.348s11.371-25.348 25.348-25.348 25.348 11.371 25.348 25.348-11.371 25.348-25.348 25.348z" fill="#3a236b"/></g></svg>